<mxfile host="app.diagrams.net" modified="2023-07-29T14:07:42.159Z" agent="Mozilla/5.0 (Windows NT 10.0; Win64; x64) AppleWebKit/537.36 (KHTML, like Gecko) Chrome/115.0.0.0 Safari/537.36" version="21.6.6" etag="05-Gi_gKnSh0tAczlpQ6" type="github">
  <diagram name="第 1 页" id="WJfjO2wKrYGOHuhVgkdJ">
    <mxGraphModel>
      <root>
        <mxCell id="0" />
        <mxCell id="1" parent="0" />
      </root>
    </mxGraphModel>
  </diagram>
</mxfile>
